<?xml version="1.0" encoding="utf-8"?>
<!-- Svg Vector Icons : http://www.onlinewebfonts.com/icon -->
<!DOCTYPE svg PUBLIC "-//W3C//DTD SVG 1.1//EN" "http://www.w3.org/Graphics/SVG/1.1/DTD/svg11.dtd">
<svg version="1.1" xmlns="http://www.w3.org/2000/svg" xmlns:xlink="http://www.w3.org/1999/xlink" x="0px" y="0px" viewBox="0 0 1000 1000" enable-background="new 0 0 1000 1000" xml:space="preserve">
<metadata> Svg Vector Icons : http://www.onlinewebfonts.com/icon </metadata>
<g><path d="M695.1,656.2H375.9c-30.3,0-37.9-16.7-39.6-26.5l-3.1-17.5c-32.7-183.6-51.4-285.8-55.5-303.4c-3.7-14.1-9.6-19.1-13.8-19.1h-63.1c-6.9,0-12.5-5.6-12.5-12.5s5.6-12.5,12.5-12.5h63.1c6.6,0,29,2.7,38.1,38.2c6.5,27.6,43.6,236.4,55.9,305l3.1,17.4c0.4,1.6,1.1,6,15.1,6h319.2c6.9,0,12.5,5.6,12.5,12.5C707.6,650.7,702.1,656.2,695.1,656.2L695.1,656.2z M658.8,555.1H336.1c-6.9,0-12.5-5.6-12.5-12.5s5.6-12.5,12.5-12.5h322.7c22.2,0,26.7-17.3,26.9-18.1c1.3-5,31.5-117.2,39.7-145.3c1-3.3,1.7-7.7,0-10.5c-1.8-2.8-6.2-4.2-8.2-4.5H296.5c-6.9,0-12.5-5.6-12.5-12.5c0-6.9,5.6-12.5,12.5-12.5h421.6c0.5,0,0.9,0,1.3,0.1c1.8,0.2,17.9,2.2,26.7,15.4c3.9,5.9,7.7,16.2,3.2,31.5c-8.2,27.7-39.2,143.2-39.4,144.3C706.8,530.9,692.1,555.1,658.8,555.1L658.8,555.1z M401.8,794.4c-28.5,0-51.8-23.3-51.8-51.8c0-28.5,23.3-51.8,51.8-51.8c28.5,0,51.8,23.3,51.8,51.8C453.6,771.1,430.3,794.4,401.8,794.4L401.8,794.4z M401.8,715.6c-14.8,0-26.8,12-26.8,26.8s12,26.8,26.8,26.8c14.8,0,26.8-12,26.8-26.8S416.5,715.6,401.8,715.6L401.8,715.6z M634.4,794.4c-28.5,0-51.8-23.3-51.8-51.8c0-28.5,23.3-51.8,51.8-51.8c28.5,0,51.8,23.3,51.8,51.8C686.2,771.1,662.9,794.4,634.4,794.4L634.4,794.4z M634.4,715.6c-14.8,0-26.8,12-26.8,26.8s12,26.8,26.8,26.8c14.8,0,26.8-12,26.8-26.8S649.2,715.6,634.4,715.6L634.4,715.6z"/><path d="M500,10C229.4,10,10,229.4,10,500s219.4,490,490,490s490-219.4,490-490S770.6,10,500,10z M500,965.3C243,965.3,34.7,757,34.7,500S243,34.7,500,34.7S965.3,243,965.3,500S757,965.3,500,965.3z"/></g>
</svg>